<svg xmlns="http://www.w3.org/2000/svg" xmlns:xlink="http://www.w3.org/1999/xlink" width="16" height="16" viewBox="0 0 16 16">
    <defs>
        <path id="a" d="M13.221 3.733a.96.96 0 1 1-1.922-.002.96.96 0 0 1 1.922.002zm-5.237 6.934A2.67 2.67 0 0 0 10.656 8a2.67 2.67 0 0 0-2.672-2.667A2.67 2.67 0 0 0 5.313 8a2.67 2.67 0 0 0 2.671 2.667zm0-6.774A4.11 4.11 0 0 1 12.1 8a4.11 4.11 0 0 1-4.115 4.107A4.11 4.11 0 0 1 3.87 8a4.11 4.11 0 0 1 4.114-4.107zm0-2.453H4.743a4.567 4.567 0 0 0-1.488.338c-.338.133-.642.34-.89.604a2.462 2.462 0 0 0-.606.89 4.543 4.543 0 0 0-.276 1.484v6.471c.005.509.095 1.014.267 1.493.134.337.34.64.606.889.248.264.553.47.89.604.477.174.98.267 1.488.276.846 0 1.104.044 3.242.044 2.137 0 2.395 0 3.241-.044a4.568 4.568 0 0 0 1.497-.267 2.74 2.74 0 0 0 1.505-1.502c.174-.476.267-.978.276-1.484 0-.89.044-1.103.044-3.236s0-2.391-.044-3.236a4.543 4.543 0 0 0-.276-1.484 2.462 2.462 0 0 0-.606-.889 2.467 2.467 0 0 0-.89-.604 4.568 4.568 0 0 0-1.488-.276c-.855-.062-1.113-.071-3.25-.071zm0-1.44c2.174 0 2.45 0 3.305.044a6.156 6.156 0 0 1 1.95.374c.53.191 1.013.495 1.416.889.395.402.699.884.89 1.413.262.63.415 1.3.455 1.982V8c0 2.169 0 2.444-.045 3.298a6.123 6.123 0 0 1-.374 1.946 4.128 4.128 0 0 1-2.342 2.338 6.156 6.156 0 0 1-1.95.374c-.891 0-1.131.044-3.305.044H4.68a6.156 6.156 0 0 1-1.95-.373 3.938 3.938 0 0 1-1.416-.89 3.928 3.928 0 0 1-.89-1.413 6.123 6.123 0 0 1-.375-1.946V8.08c0-2.169-.08-2.524-.036-3.378a6.123 6.123 0 0 1 .375-1.946c.192-.53.495-1.012.89-1.414.41-.411.906-.727 1.452-.924A6.156 6.156 0 0 1 4.68.044C5.535 0 5.811 0 7.984 0z"/>
    </defs>
    <use fill="#132E49" fill-rule="nonzero" xlink:href="#a"/>
</svg>
