<svg xmlns="http://www.w3.org/2000/svg" width="20" height="20" viewBox="0 0 20 20">
    <g fill="#122E49" fill-rule="evenodd">
        <path d="M18.438 1.547a5.37 5.37 0 0 0-7.542 0L7.92 4.493a6.959 6.959 0 0 1 2.891.31l1.687-1.67a3.06 3.06 0 0 1 2.168-.889c.82 0 1.59.316 2.17.89.578.573.897 1.334.897 2.146 0 .81-.319 1.573-.898 2.147l-3.299 3.266c-.58.574-1.35.89-2.169.89a3.06 3.06 0 0 1-2.822-1.844c-.375.02-.727.175-.996.44l-.879.871c.24.441.55.858.925 1.231a5.372 5.372 0 0 0 7.543 0l3.3-3.268a5.243 5.243 0 0 0 0-7.466z"/>
        <path d="M11.402 15.345c-.754 0-1.493-.12-2.203-.359l-1.697 1.68a3.058 3.058 0 0 1-2.168.89 3.06 3.06 0 0 1-2.168-.89 2.997 2.997 0 0 1-.899-2.146c0-.81.319-1.573.899-2.147l3.299-3.267a3.061 3.061 0 0 1 2.168-.888 3.065 3.065 0 0 1 2.823 1.845c.378-.02.73-.176.998-.441l.877-.87a5.305 5.305 0 0 0-.926-1.232 5.37 5.37 0 0 0-7.543 0l-3.299 3.268a5.242 5.242 0 0 0 0 7.468 5.37 5.37 0 0 0 7.542 0l2.97-2.942c-.221.02-.445.032-.67.032l-.003-.001z"/>
    </g>
</svg>
