<svg xmlns="http://www.w3.org/2000/svg" width="25" height="20" viewBox="0 0 25 20">
    <path fill="#132E49" fill-rule="evenodd" d="M24.986 2.373c-.933.406-1.925.672-2.943.787a5.06 5.06 0 0 0 2.25-2.787c-1.002.586-2.1 1-3.25 1.227A5.176 5.176 0 0 0 17.297 0a5.296 5.296 0 0 0-3.65 1.508 4.883 4.883 0 0 0-1.472 3.545c-.003.386.044.772.139 1.147C8.153 5.964 4.3 4.02 1.735.867a5.091 5.091 0 0 0-.694 2.6c-.003 1.676.854 3.247 2.29 4.2A5.254 5.254 0 0 1 1 7.04C.981 9.42 2.701 11.49 5.122 12c-.453.115-.92.173-1.388.173a4.58 4.58 0 0 1-.958-.04c.64 2.04 2.572 3.454 4.79 3.507a10.38 10.38 0 0 1-6.344 2.16c-.407.02-.815.02-1.222 0A14.73 14.73 0 0 0 7.857 20c9.425 0 14.589-7.694 14.589-14.36v-.653A10.34 10.34 0 0 0 25 2.32"/>
</svg>
