<svg xmlns="http://www.w3.org/2000/svg" xmlns:xlink="http://www.w3.org/1999/xlink" width="260" height="26" viewBox="0 0 260 26">
    <defs>
        <path id="a" d="M0 .019h16.92v19.058H0z"/>
        <path id="c" d="M.001.04h13.425v21.557H.001z"/>
        <path id="e" d="M.092.19h23.91v25.577H.092z"/>
    </defs>
    <g fill="none" fill-rule="evenodd">
        <g transform="translate(0 2.326)">
            <mask id="b" fill="#fff">
                <use xlink:href="#a"/>
            </mask>
            <path fill="#112F49" d="M16.92 11.604c0 3.316-2.212 7.473-6.99 7.473-5.816 0-9.93-3.998-9.93-9.29C0 4.47 4.91.018 9.356.018c2.477 0 3.317 1.453 5.109 1.453 1.37 0 1.703-1.249 1.703-1.249h.088v8.7h-.265v-.5c0-1.204-2.124-8.11-6.348-8.11-2.543 0-3.715 3.93-3.715 9.769 0 5.837 1.658 8.654 4.445 8.654 3.45 0 6.193-3.339 6.193-7.132h.354z" mask="url(#b)"/>
        </g>
        <path fill="#112F49" d="M24.262 8.523c-1.327 0-1.57 1.136-1.57 6.316 0 5.429.376 6.156 1.57 6.156 1.238 0 1.57-1.046 1.57-6.088 0-4.362.067-6.384-1.57-6.384m-.022 12.812c-3.65 0-6.613-2.953-6.613-6.587 0-3.612 2.964-6.565 6.613-6.565 3.65 0 6.613 2.953 6.613 6.565 0 3.634-2.964 6.587-6.613 6.587M45.295 20.903h-5.817v-1.635c-.42 1.431-1.813 2.022-3.472 2.022-1.836 0-3.672-1.159-3.672-3.84V9.774c0-.59-.155-.863-.62-.863h-.84v-.296h5.861v10.018c0 1.317.531 1.704 1.084 1.704.863 0 1.659-1.181 1.659-2.908V9.682c0-.613-.398-.772-.597-.772h-.442v-.296h5.352v11.04c0 .546.243.977.752.977h.752v.272zM60.378 20.903h-6.9v-.272h.265c.487 0 .752-.363.752-.909v-8.859c0-1.294-.509-1.68-1.062-1.68-.862 0-1.658 1.18-1.658 2.907v7.746c0 .613.398.795.597.795h.42v.272h-7.055v-.272h.663c.664 0 1.062-.5 1.062-1.113V9.887c0-.568-.243-.977-.752-.977h-.752v-.296h5.817v1.636c.42-1.431 1.813-2.022 3.472-2.022 1.836 0 3.671 1.159 3.671 3.84v7.677c0 .59.155.886.62.886h.84v.272zM67.168 21.358c-1.947 0-3.296-1-4.402-1-.95 0-1.194.5-1.26.682h-.2v-5.724h.178c.287 1.499 2.543 5.769 5.418 5.769 1.172 0 1.88-.59 1.88-1.772 0-1.612-1.791-2.021-3.605-2.703-1.836-.681-3.671-1.635-3.671-4.384 0-2.499 2.455-4.157 4.998-4.157 1.371 0 2.654.727 3.274.727.619 0 .751-.386.751-.522h.222v4.248h-.155c-.288-1.5-1.748-4.18-4.026-4.18-1.083 0-1.68.704-1.68 1.545 0 1.703 1.614 2.09 3.317 2.635 1.858.59 3.782 1.385 3.782 4.315 0 3.385-3.03 4.52-4.821 4.52M78.845 8.637c-1.017 0-1.46 1.431-1.526 5.588h2.035c.287 0 .53.068.53-.409 0-4.157.067-5.179-1.04-5.179m4.712 5.906h-6.237c0 .25-.022.5-.022.75 0 4.588.708 5.565 2.234 5.565 2.41 0 4.246-2.294 4.246-4.452h.31c0 2.18-1.703 4.838-5.043 4.838-3.804 0-6.348-2.521-6.348-6.337 0-3.817 2.876-6.588 6.038-6.588 3.561 0 5.42 2.908 5.42 5.679 0 .454-.2.545-.598.545"/>
        <path fill="#112F49" d="M91.761 20.903h-7.785v-.295h.664c.641 0 1.061-.454 1.061-1.067V4.049c0-.614-.31-1-.907-1h-.597v-.295h6.127v16.787c0 .613.265 1.067.796 1.067h.641v.295zM100.033 20.903h-7.785v-.295h.663c.642 0 1.062-.454 1.062-1.067V4.049c0-.614-.31-1-.907-1h-.597v-.295h6.126v16.787c0 .613.266 1.067.797 1.067h.64v.295zM108.282 20.903h-7.785v-.295h.664c.64 0 1.061-.454 1.061-1.067V9.909c0-.613-.31-1-.907-1h-.597v-.295h6.126v10.927c0 .613.266 1.067.797 1.067h.641v.295zM123.321 20.903h-6.9v-.272h.265c.487 0 .752-.363.752-.909v-8.859c0-1.294-.508-1.68-1.061-1.68-.863 0-1.659 1.18-1.659 2.907v7.746c0 .613.398.795.597.795h.42v.272h-7.055v-.272h.664c.663 0 1.061-.5 1.061-1.113V9.887c0-.568-.243-.977-.752-.977h-.752v-.296h5.817v1.636c.42-1.431 1.814-2.022 3.472-2.022 1.836 0 3.672 1.159 3.672 3.84v7.677c0 .59.154.886.619.886h.84v.272z"/>
        <g transform="translate(122.48 4.213)">
            <mask id="d" fill="#fff">
                <use xlink:href="#c"/>
            </mask>
            <path fill="#112F49" d="M6.68 4.47c-.95 0-1.304.635-1.304 3.566 0 2.907.265 3.43 1.37 3.43 1.085 0 1.217-.682 1.217-3.476 0-2.771-.177-3.52-1.283-3.52M5.442 17.166c-.84-.046-1.592-.09-2.234-.227-1.238.181-1.57.977-1.57 1.999 0 2.044 1.858 2.362 4.71 2.362 3.252 0 4.07-.772 4.07-2.09 0-1.749-2.499-1.976-4.976-2.044m.907 4.43c-4.335 0-6.348-1-6.348-2.68 0-1.091 1.172-1.932 2.389-2.182C1.218 16.35.532 15.577.532 14.191c0-1.59 1.526-2.635 3.163-2.998-1.504-.681-2.5-1.863-2.5-3.203 0-2.112 2.433-3.816 5.42-3.816.464 0 .928.045 1.37.114-.199-.432-.376-.955-.376-1.523 0-1.317.996-2.725 2.765-2.725 1.416 0 2.3 1.113 2.3 2.135 0 1.181-.929 1.953-2.012 1.953-1.084 0-1.969-.863-1.969-1.885 0-.84.597-1.454.597-1.5 0-.045-.044-.09-.11-.09-.288 0-1.26.84-1.26 2.021 0 .955.464 1.5.994 1.84 1.836.614 3.119 1.931 3.119 3.476 0 2.09-2.433 3.816-5.419 3.816-.862 0-1.703-.159-2.433-.409-.553.091-.973.455-.973.932 0 1.09 1.062 1.09 3.87 1 2.832-.069 6.348.181 6.348 3.838 0 2.749-1.902 4.43-7.077 4.43" mask="url(#d)"/>
        </g>
        <path fill="#112F49" d="M151.298 3.027h-2.278v16.24c0 .819.443 1.364 1.239 1.364h1.393c1.725 0 2.654-.84 2.654-8.95 0-7.223-1.305-8.654-3.008-8.654m.686 17.876h-10.97v-.272h1.283c1.083 0 1.658-.41 1.658-1.318V4.526c0-1.068-.597-1.5-1.437-1.5h-.642v-.295h10.197c4.4 0 8.006 4.225 8.006 9.04 0 6.384-3.96 9.132-8.095 9.132M168.35 20.903h-7.785v-.295h.663c.642 0 1.062-.454 1.062-1.067V9.909c0-.613-.31-1-.907-1h-.597v-.295h6.127v10.927c0 .613.265 1.067.796 1.067h.64v.295zM177.904 13.385c-1.017 0-2.145-.863-2.145-2.113 0-1.363.973-2.271 2.057-2.271.796 0 1.15.34 1.282.34.045 0 .11-.045.11-.113 0-.364-.64-.931-1.57-.931-.95 0-2.41.749-2.41 3.293v8.019c0 .727.288 1.022.641 1.022h.84v.272h-7.94v-.272h.753c.641 0 1.127-.363 1.127-.977v-9.7c0-.613-.309-1.044-.818-1.044h-.752v-.295h5.906l.11 1.408c.266-.59.996-1.976 2.61-1.976 1.327 0 2.455 1.135 2.455 2.77 0 1.637-1.106 2.568-2.256 2.568M186.353 8.637c-1.018 0-1.46 1.431-1.527 5.588h2.035c.288 0 .531.068.531-.409 0-4.157.066-5.179-1.04-5.179m4.711 5.906h-6.237c0 .25-.022.5-.022.75 0 4.588.708 5.565 2.234 5.565 2.41 0 4.247-2.294 4.247-4.452h.31c0 2.18-1.704 4.838-5.044 4.838-3.803 0-6.347-2.521-6.347-6.337 0-3.817 2.875-6.588 6.038-6.588 3.56 0 5.419 2.908 5.419 5.679 0 .454-.2.545-.598.545M203.736 16.088c0 2.612-1.37 5.224-4.821 5.224-3.849 0-6.79-2.657-6.79-6.542 0-3.543 3.008-6.474 7.1-6.474 2.676 0 4.357 1.818 4.357 3.68 0 1.704-1.195 2.681-2.566 2.681-1.548 0-2.676-1.136-2.676-2.476 0-1.318.995-2.43 2.41-2.43.62 0 .974.226 1.04.226.067 0 .067-.09.067-.181 0-.25-.841-1.25-2.434-1.25-1.349 0-2.433 1.227-2.433 6.633 0 4.612.82 5.793 2.433 5.793 2.345 0 4.07-2.136 4.07-4.907l.243.023zM211.742 16.792c0 3.385-1.304 4.498-3.384 4.498-1.902 0-3.383-.795-3.383-2.613V8.932h-1.217v-.34h.752c2.234 0 4.888-1.976 4.888-4.475l.287.023v4.452h2.035v.34h-2.035v10.29c0 .864.244.977.553.977.598 0 1.239-1.18 1.239-3.407h.265zM218.688 8.523c-1.328 0-1.571 1.136-1.571 6.316 0 5.429.376 6.156 1.571 6.156 1.238 0 1.569-1.046 1.569-6.088 0-4.362.066-6.384-1.569-6.384m-.024 12.812c-3.648 0-6.612-2.953-6.612-6.587 0-3.612 2.964-6.565 6.612-6.565 3.651 0 6.614 2.953 6.614 6.565 0 3.634-2.963 6.587-6.614 6.587"/>
        <path fill="#112F49" d="M234.037 13.385c-1.019 0-2.147-.863-2.147-2.113 0-1.363.973-2.271 2.058-2.271.795 0 1.15.34 1.281.34.045 0 .112-.045.112-.113 0-.364-.643-.931-1.57-.931-.95 0-2.412.749-2.412 3.293v8.019c0 .727.288 1.022.643 1.022h.84v.272h-7.94v-.272h.752c.64 0 1.128-.363 1.128-.977v-9.7c0-.613-.311-1.044-.818-1.044h-.752v-.295h5.904l.11 1.408c.266-.59.997-1.976 2.61-1.976 1.329 0 2.455 1.135 2.455 2.77 0 1.637-1.105 2.568-2.254 2.568"/>
        <g transform="translate(235.934 .02)">
            <mask id="f" fill="#fff">
                <use xlink:href="#e"/>
            </mask>
            <path fill="#112F49" d="M21.37 6.913c-1.35 0-2.302-.999-2.302-2.225 0-1.409 1.061-2.34 2.278-2.34.797 0 1.085.318 1.261.318.067 0 .133-.068.133-.273 0-.795-.952-1.703-2.432-1.703-4.313 0-6.747 4.838-8.294 9.767L8.165 22.814c-.619 1.977-1.835 2.953-3.648 2.953a2.718 2.718 0 0 1-2.744-2.725c0-1.409 1.085-2.386 2.277-2.386 1.307 0 2.19 1.09 2.19 2.181 0 1.182-.862 2.135-2.056 2.135-.42 0-.819-.158-.995-.158-.045 0-.067 0-.067.045 0 .34.707.636 1.46.636 1.106 0 2.543-.523 3.229-2.59l.664-2.022H6.682l-4.864-10.88C1.463 9.23 1.02 8.89.602 8.89h-.51v-.295H8.1v.295h-.553c-.333 0-.576.182-.576.522 0 .114.022.273.089.432l2.632 6.815L11.35 9.98C12.744 4.347 15.044.19 19.556.19c3.03 0 4.446 2.067 4.446 3.93 0 1.476-.907 2.793-2.633 2.793" mask="url(#f)"/>
        </g>
        <path fill="#008192" d="M104.408 7.695c1.272 0 2.303-.959 2.303-2.141s-1.031-2.14-2.303-2.14-2.304.958-2.304 2.14c0 1.182 1.032 2.14 2.304 2.14"/>
        <path fill="#112F49" d="M164.52 7.695c1.271 0 2.303-.959 2.303-2.141s-1.032-2.14-2.304-2.14c-1.272 0-2.304.958-2.304 2.14 0 1.182 1.032 2.14 2.304 2.14"/>
    </g>
</svg>
