<svg xmlns="http://www.w3.org/2000/svg" xmlns:xlink="http://www.w3.org/1999/xlink" width="474" height="385" viewBox="0 0 474 385">
    <defs>
        <path id="a" d="M.02.028h23.036v3.817H.019z"/>
        <path id="c" d="M.158.285h14.46v11.211H.158z"/>
        <path id="e" d="M.233.083H8.58V11.05H.233z"/>
        <path id="g" d="M0 .261h15.108v34.093H0z"/>
    </defs>
    <g fill="none" fill-rule="evenodd">
        <path fill="#EDEDED" d="M456.194 251.385c-8.027 0-14.777 5.464-16.753 12.881v-31.722c1.976 7.418 8.726 12.882 16.753 12.882 9.578 0 17.342-7.778 17.342-17.373 0-9.594-7.764-17.372-17.342-17.372-8.027 0-14.777 5.464-16.753 12.881v-19.21c9.329-1.797 16.378-10.014 16.378-19.884 0-11.185-9.052-20.253-20.218-20.253s-20.218 9.068-20.218 20.253c0 10.363 7.77 18.902 17.792 20.104v17.814c-2.346-6.811-8.797-11.705-16.393-11.705-9.578 0-17.342 7.778-17.342 17.372 0 9.595 7.764 17.373 17.342 17.373 7.596 0 14.047-4.894 16.393-11.705v29.023c-2.443-6.63-8.807-11.36-16.274-11.36-9.578 0-17.342 7.779-17.342 17.373 0 9.595 7.764 17.373 17.342 17.373 7.467 0 13.831-4.728 16.274-11.36v74.738a2.846 2.846 0 0 0 2.835 2.841h.595a2.847 2.847 0 0 0 2.836-2.84v-76.26c1.976 7.417 8.726 12.881 16.753 12.881 9.578 0 17.342-7.778 17.342-17.373 0-9.594-7.764-17.372-17.342-17.372M134.287 349.974s12.736-96.127 120.572-103.984c32.012-2.332 54.927-.153 83.14 10.053 35.625 12.889 73.413 39.58 70.273 94.75l-273.985-.819z"/>
        <path fill="#EAEAEA" d="M419.124 127.59c-10.968 10.987-22.408 17.341-25.552 14.192-3.144-3.15 3.199-14.61 14.166-25.597 10.969-10.988 22.408-17.342 25.552-14.192 3.144 3.15-3.198 14.61-14.166 25.597M349.852 136.795c-15.94-21.645-24.044-42.752-18.102-47.143 5.942-4.392 23.68 9.596 39.62 31.242 15.939 21.645 24.043 42.752 18.1 47.144-5.94 4.39-23.68-9.597-39.618-31.243"/>
        <path fill="#EAEAEA" d="M388.762 330.59h5.961V72.605h-5.961zM240.89 121.876a3.6 3.6 0 0 0-3.489 3.707 3.598 3.598 0 0 0 3.702 3.494 3.6 3.6 0 0 0 3.489-3.707 3.6 3.6 0 0 0-3.702-3.494"/>
        <path fill="#F9F9F9" d="M362.05 134.722a2.627 2.627 0 0 0-2.546 2.705 2.626 2.626 0 0 0 2.7 2.55 2.626 2.626 0 0 0 2.546-2.705 2.626 2.626 0 0 0-2.7-2.55M409.633 184.445a2.627 2.627 0 0 0-2.545 2.706 2.626 2.626 0 0 0 2.7 2.55 2.626 2.626 0 0 0 2.546-2.706 2.626 2.626 0 0 0-2.7-2.55"/>
        <path fill="#EAEAEA" d="M3.49 73.051a3.6 3.6 0 0 0-3.488 3.706 3.6 3.6 0 0 0 3.701 3.494 3.6 3.6 0 0 0 3.49-3.706A3.599 3.599 0 0 0 3.49 73.05M164.472 77.855a6.4 6.4 0 0 0-6.203 6.59 6.398 6.398 0 0 0 6.581 6.21 6.399 6.399 0 0 0 6.203-6.59 6.398 6.398 0 0 0-6.58-6.21M225.268 230.733a4.8 4.8 0 0 0-4.652 4.943 4.798 4.798 0 0 0 4.935 4.658 4.8 4.8 0 0 0 4.653-4.942 4.798 4.798 0 0 0-4.936-4.659M116.172 196.315a4.4 4.4 0 0 0-4.264 4.53 4.399 4.399 0 0 0 4.524 4.271 4.4 4.4 0 0 0 4.264-4.53 4.398 4.398 0 0 0-4.524-4.27M393.314 52.008c0 6.783-5.203 12.281-11.622 12.281s-11.622-5.498-11.622-12.28c0-6.783 5.203-12.282 11.622-12.282s11.622 5.499 11.622 12.281"/>
        <path fill="#EAEAEA" d="M416.12 52.008c0 6.783-5.204 12.281-11.623 12.281-6.418 0-11.622-5.498-11.622-12.28 0-6.783 5.204-12.282 11.622-12.282 6.419 0 11.622 5.499 11.622 12.281"/>
        <path fill="#EAEAEA" d="M391.686 48.467h1.38V4.585h-1.38z"/>
        <path fill="#F9F9F9" d="M396.86 4.585a4.261 4.261 0 0 1-4.257 4.265 4.261 4.261 0 0 1-4.258-4.265 4.261 4.261 0 0 1 4.258-4.266 4.261 4.261 0 0 1 4.258 4.266"/>
        <path fill="#EAEAEA" d="M402.289 64.122h1.153V20.24h-1.153z"/>
        <path fill="#F9F9F9" d="M407.123 17.472a4.262 4.262 0 0 1-4.258 4.265 4.261 4.261 0 0 1-4.258-4.265 4.261 4.261 0 0 1 4.258-4.265 4.261 4.261 0 0 1 4.258 4.265"/>
        <path fill="#EAEAEA" d="M381.861 71.117h1.128V27.236h-1.128z"/>
        <path fill="#F9F9F9" d="M386.844 23.878a4.261 4.261 0 0 1-4.258 4.265 4.261 4.261 0 0 1-4.257-4.265 4.261 4.261 0 0 1 4.257-4.265 4.261 4.261 0 0 1 4.258 4.265M393.537 94.644s-40.751 3.703-40.751-32.473c0 0 1.273-16.806 16.873-16.806 0 0 13.393.57 13.393 11.963 0 0-.976-11.963 10.485-11.963 0 0 10.506-.285 10.506 12.248 0 0-.907-11.636 14.08-12.226.829-.032 1.664.022 2.48.16 2.824.476 7.73 2.025 11.18 6.678 2.202 2.969 3.144 6.567 3.007 10.162-.37 9.608-5.064 32.341-41.253 32.257"/>
        <path fill="#EAEAEA" d="M371.743 74.599c-6.833-13.68-1.938-23.157 2.628-28.303-2.57-.838-4.712-.931-4.712-.931-15.6 0-16.874 16.806-16.874 16.806 0 36.176 40.752 32.473 40.752 32.473 13.438.03 22.529-3.086 28.673-7.507-43.554 10.373-50.467-12.538-50.467-12.538"/>
        <path fill="#EAEAEA" d="M377.926 95.277c0 9.802 6.498 17.748 14.514 17.748 8.016 0 14.514-7.946 14.514-17.748a21.54 21.54 0 0 0-.39-4.027h-28.248a21.54 21.54 0 0 0-.39 4.027"/>
        <g>
            <path fill="#EDCCB7" d="M326.611 259.871l-5.376-1.498-3.315-.091a1.533 1.533 0 0 1-.623-2.91l1.729-.838a7.932 7.932 0 0 1 6.36-.243l1.225 5.58z"/>
            <path fill="#896E5B" d="M387.528 246.85s-.289-3.543-4.365-3.807c0 0-21.015 8.013-28.531 11.06-1.528.619-4.501-.186-6.147-.281l-24.02-.92-.117 7.403 26.512 4.026s14.217 1.19 34.168-11.453a5.745 5.745 0 0 0 2.172-2.475c.463-1.028.809-2.357.328-3.552"/>
            <path fill="#F9DFCA" d="M393.156 373.704s2.036-14.119 2.977-21.213l-7.386 1.686c-3.951 1.095-5.176 5.516-4.458 9.56.634 3.571.111 8.294.036 10.344-.155 4.226 8.83-.377 8.83-.377"/>
            <path fill="#E5E5E5" d="M381.64 375.649s2.56.833 2.647-2.796l9.028-.255.51 5.273-10.686 2.776s-3.916-3.393-1.5-4.998"/>
            <path fill="#E5E5E5" d="M393.894 382.667s.79-4.68-.434-5.459c0 0-8.34 1.978-9.758 1.681l-.845-.917s.695-1.89-.554-2.916c0 0-1.97 1.123-3.726 2.32a5.852 5.852 0 0 1-2.744.984c-.87.083-2.053.112-3.554-.035 0 0-1.454-.38-1.204 2.145l.447.727s3.37 1.903 8.212 1.965c4.842.062 7.307.055 7.307.055l5.236.334 1.617-.884z"/>
            <path fill="#C1C0BF" d="M381.175 377.33s.583-1.954-1.068-2.186c0 0-1.485-.093-.167 2.558l.249-.164s-1.31-1.929-.125-2.187c0 0 1.344-.101 1.005 1.911-.34 2.013.106.068.106.068"/>
            <path fill="#C1C0BF" d="M380.616 377.975s-.136-2.828-2.336-2.58a1.134 1.134 0 0 0-.593.23c-.437.356-.88 1.291 1.379 3.485l.269-.353s-2.392-1.763-1.533-2.78a.965.965 0 0 1 .626-.319c.559-.07 1.63.1 2.006 2.274.518 2.995.182.043.182.043"/>
            <g transform="translate(370.862 380.245)">
                <mask id="b" fill="#fff">
                    <use xlink:href="#a"/>
                </mask>
                <path fill="#C1C0BF" d="M23.042 2.258s.11.72-.289 1.286a.58.58 0 0 1-.466.247l-4.886.054a.264.264 0 0 1-.156-.05l-.611-.438a.34.34 0 0 0-.23-.064c-1.172.106-10.265.847-14.626-1.2 0 0-1.765-.647-1.729-1.221 0 0-.128-.41.146-.844 0 0 .458 2.437 11.089 2.636a14.6 14.6 0 0 0 1.606-.06c1.303-.12 4.058-.334 5.458-.153 0 0 3.346.338 4.694-.193" mask="url(#b)"/>
            </g>
            <path fill="#FFF" d="M379.04 379.62s-5.336.218-7.22-.839c-.114-.063-.103-.232.015-.289.178-.085.337-.197.121-.25-.186-.045-.43.066-.593.165a.309.309 0 0 0-.039.515s1.8 1.185 7.605 1.103c0 0 1.122-.217.11-.405M391.827 377.957c-.063-.087-.189-.085-.264-.008-.08.083-.272.21-.713.29 0 0-4.518.935-5.083.799-.042-.01-.156-.272-.181-.311a3.083 3.083 0 0 0-.527-.63c-.512-.454-1.28-.455-1.857-.127-.74.421-.723 1.62-.154 2.173.58.564 1.688.454 2.402.347 0 0 5.634-.838 6.595-1.45 0 0-.012-.8-.218-1.083"/>
            <path fill="#F9DFCA" d="M420.346 366.97s-3.945-6.616-10.987-19.747l-10.434 4.518s13.327 11.803 14.012 15.975c.686 4.173 7.41-.747 7.41-.747"/>
            <path fill="#E5E5E5" d="M410.476 370.177s2.675.308 2.04-3.266l7.271-1.108 3.073 4.128-9.923 4.847s-4.511-2.547-2.46-4.6"/>
            <path fill="#E5E5E5" d="M423.877 374.618s-.153-4.745-1.506-5.264c0 0-7.782 3.597-9.231 3.589l-1.01-.732s.307-1.99-1.121-2.747c0 0-1.709 1.492-3.192 3.015a5.86 5.86 0 0 1-2.494 1.51c-.837.256-1.99.518-3.49.673 0 0-1.501-.084-.755 2.342l.582.624s3.68 1.194 8.438.292c4.758-.903 7.172-1.4 7.172-1.4l5.198-.714 1.41-1.188z"/>
            <path fill="#C1C0BF" d="M410.354 371.917s.185-2.03-1.48-1.93c0 0-1.474.204.344 2.54l.211-.209s-1.667-1.63-.555-2.12c0 0 1.297-.366 1.363 1.674.066 2.04.117.045.117.045"/>
            <path fill="#C1C0BF" d="M409.934 372.66s-.693-2.745-2.8-2.063a1.133 1.133 0 0 0-.536.344c-.358.435-.607 1.44 2.042 3.14l.193-.4s-2.693-1.252-2.053-2.42a.971.971 0 0 1 .55-.436c.534-.18 1.618-.226 2.418 1.83 1.101 2.832.186.005.186.005M423.855 374.455s.25.684-.029 1.318a.578.578 0 0 1-.407.335l-4.778 1.025a.263.263 0 0 1-.163-.017l-.686-.308a.339.339 0 0 0-.238-.017c-1.128.337-9.892 2.872-14.572 1.733 0 0-1.86-.283-1.937-.853 0 0-.206-.376-.024-.857 0 0 .932 2.298 11.39.378.527-.097 1.05-.223 1.562-.378 1.254-.376 3.912-1.134 5.32-1.235 0 0 3.346-.335 4.562-1.124"/>
            <path fill="#FFF" d="M408.715 374.587s-5.185 1.274-7.242.614c-.124-.04-.146-.207-.042-.287.156-.119.29-.26.069-.268-.191-.008-.408.149-.55.278a.308.308 0 0 0 .065.513s2 .803 7.672-.432c0 0 1.057-.435.028-.418M420.609 370.4c-.074-.068-.19-.042-.244.042-.06.092-.212.244-.603.4 0 0-3.984 1.705-4.529 1.685-.041-.001-.194-.221-.225-.252a2.885 2.885 0 0 0-.602-.481c-.556-.322-1.262-.18-1.733.23-.603.525-.363 1.626.262 2.028.64.41 1.638.102 2.277-.13 0 0 5.028-1.823 5.799-2.566 0 0-.16-.734-.402-.956"/>
            <path fill="#EFE0BF" d="M403.664 296.05c-6.065.23-16.126 14.012-22.39 21.429-2.304 2.73-2.958 11.735-.422 14.252l27.738 31.693 10.173-7.467-23.769-36.915 21.365-23.68-12.695.687z"/>
            <path fill="#BC8757" d="M305.74 264.835l4.496 7.084 1.578 4.732a2.298 2.298 0 0 0 2.029 1.566 2.298 2.298 0 0 0 2.419-1.94l.446-2.854a11.97 11.97 0 0 0-2.429-9.26l-8.54.672zM329.946 255.774l.622 6.912-1.311 6.276c-.202.966.2 1.959 1.016 2.511a2.423 2.423 0 0 0 3.082-.304l3.09-3.128a4.14 4.14 0 0 0 1.194-2.896l.018-5.634-7.71-3.737zM228.084 358.183s8.054-17.392 8.745-27.593l12.34 6.277s-7.312 16.72-8.291 22.68c-.98 5.961-12.794-1.364-12.794-1.364M285.927 364.54c-.009-3.586 1.063-17.597-1.433-23.474l15.31.17s-.949 15.866.043 21.031c.992 5.166-13.92 2.274-13.92 2.274"/>
            <path fill="#F9DFCA" d="M362.054 228.682l3.468 5.915.333 2.454c-.008.613.361 1.044.844.748l.97-.904 2.878 3.227c.522.599 1.345.73 1.987.298 1.86-1.254 4.813-1.645 6.93 2.462 0 0 9.258 1.348 12.404-3.904 0 0-7.255-12.952-7.833-15.7 0 0-4.023-9.31-10.975-6.86 0 0-10.78 1.358-11.628 7.162 0 0-.506 3.556.622 5.102"/>
            <path fill="#F9C6BA" d="M372.136 233.637c-.016 1.207.849 2.2 1.933 2.218 1.084.018 1.976-.945 1.992-2.152.017-1.206-.849-2.2-1.933-2.218-1.084-.018-1.976.945-1.992 2.152"/>
            <path fill="#FFF" d="M368.919 238.334s1.472-.56 1.687-1.602c0 0 .066 1.694-1.126 2.246l-.561-.644z"/>
            <path fill="#BC8757" d="M330.818 161.404l-6.037 6.338-1.007 2.908c-.127.75-.725 1.183-1.312.7l-1.11-1.347-4.63 3.21a2.216 2.216 0 0 1-2.759-.139c-2.238-1.998-6.151-3.22-9.946 1.254 0 0-7.23-3.282-10.305-10.48 0 0 6.882-8.727 8.286-11.932 0 0 7.814-12.983 16.68-8.243 0 0 14.3 4.375 14.137 11.666 0 0-.12 4.464-1.997 6.065"/>
            <path fill="#D1AA8F" d="M316.726 165.27a1.776 1.776 0 1 1-3.5-.597 1.775 1.775 0 1 1 3.5.596"/>
            <path fill="#000" d="M373.388 222.95s-11.389 8.393-12.744 2.704c-1.685-7.078 8.852-12.565 13.655-12.896 6.883-.473 14.587 6.514 13.685 14.844-.411 3.8-2.315 7.842-5.816 4.852-.001-.001-4.973-4.248-3.475-6.186 0 0 1.833-4.07-.965-4.236 0 0-1.13-.03-.884 2.093l.232 1.324-.86.486s-1.322 1.026-2.828-2.985"/>
            <path fill="#E5D7B5" d="M297.816 171.464s5.209-1.132 7.366 4.62c0 0-.194 35.199-1.282 47.349-.221 2.469.11 4.947.965 7.274l11.807 34.173-10.566 3.402-17.35-36.404s-7.918-19.945 1.507-54.185c.446-1.619 1.338-3.1 2.6-4.207 1.272-1.115 3.03-2.193 4.953-2.022"/>
            <path fill="#000" d="M330.195 165.622s-8.214-3.31-3.82-6.896c0 0-6.974-1.546-3.922-6.934l-6.528 6.972c-.621.663-1.572.76-2.227.227-.602-.49-.664-1.448-.141-2.107 1.063-1.34 2.502-3.464 2.336-3.991-.308-.975-1.225-.833-2.32-.19-4.617 2.714-7.46 5.262-12.442 4.32l-.585-.032c-.732-.138-1.314-.735-1.425-1.53a4.614 4.614 0 0 1 .754-3.216c3.164-4.644 10.643-16.13 21.757-12.685 0 0 12.876 4.065 14.24 17.735 0 0 .072 9.243-5.677 8.327"/>
            <path fill="#020202" d="M323.166 164.341a.755.755 0 1 1-1.49-.25.755.755 0 0 1 1.49.25"/>
            <path fill="#F4F4F4" d="M359.168 372.759c0 2.832-12.728 5.129-28.428 5.129-15.702 0-28.43-2.297-28.43-5.13 0-2.832 12.728-5.129 28.43-5.129 15.7 0 28.428 2.297 28.428 5.13"/>
            <path fill="#020202" d="M368.474 230.143c-.07.38-.403.624-.744.547-.341-.078-.561-.45-.491-.829.07-.38.403-.624.744-.546.341.077.561.448.491.828"/>
            <path fill="#F9EED2" d="M309.834 174.326s-9.498-5.713-15.962-10.64a5.713 5.713 0 0 0-6.144-.496l-2.292 1.216c-9.604 5.092-18.38 12.162-24.47 21.258-7.131 10.65-11.042 23.098-15.373 35.048-.114.314-11.997 25.426-7.217 17.134l43.815-1.679 19.582-27.202s2.872-4.185 7.833-12.032c0 0 9.744 11.314 17.119 24.5a12.84 12.84 0 0 1 1.619 6.268v33.846l11.508.887s1.778-10.284 2.729-22.717c.606-7.932 2.387-15.92 0-21.387-2.947-6.745-7.547-30.235-32.747-44.004"/>
            <path fill="#725F50" d="M239.29 234.259c-1.899-.083-3.3 7.974-3.382 8.998-.761 9.477.691 18.978 2.008 28.34 1.183 8.418 4.946 17.319 3.031 25.86l-10.714 47.568 15.475 5.736 20.652-51.79c.65-1.63.608-10.242.608-12.846l-2.443-29.88 9.49 29.88c1.052 2.64 2.758 5.965 2.934 8.801l9.054 54.547s5.797 2.964 13.891.872l1.286-57.158c.139-3.083-.26-7.522-1.286-10.432l-17.703-46.588-42.9-1.908"/>
            <path fill="#BC8757" d="M243.658 364.18s-3.82.44-2.915-4.667l-10.21-8.42-4.567 12.734 14.177 6.926s6.444-3.639 3.515-6.573M304.068 364.878s-1.667-.254-4.174-3.993l-13.07-8.096-1.388 13.812 16.569 7.182s5.638-6.44 2.063-8.905"/>
            <path fill="#C1C0BF" d="M284.006 371.927s-.027-7.106 1.97-7.955c0 0 11.834 4.96 14.001 4.87l1.472-1.15s-.566-2.96 1.528-4.17c0 0 2.554 2.073 4.828 4.233 1.07 1.017 2.35 1.799 3.772 2.189 1.277.35 3.065.7 5.407.857 0 0 2.24-.207 1.255 3.462l-.836.966s-5.44 1.985-12.607.893c-7.166-1.093-10.804-1.706-10.804-1.706l-7.814-.787-2.172-1.702z"/>
            <path fill="#E5E5E5" d="M304.09 367.156s-.386-3.027 2.108-2.966c0 0 2.217.224-.376 3.818l-.328-.302s2.406-2.53.717-3.2c0 0-1.96-.479-1.95 2.577.011 3.055-.172.073-.172.073"/>
            <path fill="#E5E5E5" d="M304.757 368.245s.89-4.144 4.08-3.237c.31.088.604.243.818.484.56.632.986 2.121-2.885 4.81l-.31-.588s3.96-2.02 2.94-3.732c-.185-.31-.5-.52-.846-.623-.81-.24-2.433-.25-3.518 2.868-1.495 4.297-.28.018-.28.018M284.03 371.683s-.364 1.123.173 2.084c.113.203.334.324.562.365l7.21 1.275a.392.392 0 0 0 .242-.034l1.01-.5a.507.507 0 0 1 .355-.037c1.705.443 14.953 3.761 21.89 1.805 0 0 2.767-.525 2.852-1.381 0 0 .29-.573-.01-1.283 0 0-1.274 3.499-17.096 1.17a21.334 21.334 0 0 1-2.278-.469c-1.895-.496-5.912-1.486-8.024-1.56 0 0-5.025-.32-6.886-1.435M306.684 371.061s7.826 1.626 10.867.527c.184-.067.208-.317.048-.43-.24-.17-.45-.374-.118-.4.286-.022.619.202.837.388a.462.462 0 0 1-.07.77s-2.947 1.31-11.498-.23c0 0-1.605-.595-.066-.625M285.27 371.005l.098-.979s-1.337-.196-1.276-.807c0 0-1.147-.24-.214.904l1.392.882z"/>
            <path fill="#E5E5E5" d="M285.683 363.46c.185-.15.447-.053.583.142.164.236.579.62 1.62.995 0 0 10.625 4.097 12.055 3.994.107-.008.489-.6.566-.686.455-.497.964-.959 1.536-1.318 1.429-.9 3.297-.594 4.571.438 1.635 1.323 1.11 4.235-.496 5.351-1.64 1.14-4.292.425-5.99-.122 0 0-13.38-4.312-15.472-6.191 0 0 .373-2.072 1.027-2.603"/>
            <path fill="#C1C0BF" d="M224.513 370.524s.218-6.78 2.152-7.52c0 0 11.117 5.139 13.188 5.127l1.443-1.045s-.438-2.843 1.6-3.925c0 0 2.442 2.132 4.561 4.308a8.368 8.368 0 0 0 3.563 2.157c1.196.364 2.844.74 4.986.96 0 0 2.145-.12 1.08 3.346l-.832.893s-5.258 1.705-12.055.416c-6.798-1.289-10.247-2-10.247-2l-7.426-1.02-2.013-1.697z"/>
            <path fill="#E5E5E5" d="M243.833 366.666s-.264-2.901 2.113-2.757c0 0 2.107.29-.49 3.629l-.302-.3s2.382-2.33.794-3.028c0 0-1.853-.523-1.948 2.39-.095 2.915-.167.066-.167.066"/>
            <path fill="#E5E5E5" d="M244.432 367.727s.992-3.921 4.002-2.947c.293.095.569.252.764.49.512.622.868 2.057-2.916 4.487l-.277-.57s3.848-1.79 2.933-3.458c-.166-.302-.46-.514-.785-.624-.764-.257-2.312-.323-3.454 2.614-1.573 4.047-.267.008-.267.008M224.544 370.291s-.356.977.041 1.883a.826.826 0 0 0 .582.48l6.827 1.464c.078.016.16.008.233-.025l.98-.441a.485.485 0 0 1 .34-.024c1.61.482 14.133 4.104 20.818 2.476 0 0 2.656-.405 2.767-1.218 0 0 .295-.537.035-1.224 0 0-1.332 3.283-16.273.54a20.854 20.854 0 0 1-2.232-.54c-1.792-.539-5.588-1.621-7.6-1.765 0 0-4.78-.479-6.518-1.606M246.174 370.48s7.408 1.82 10.346.877c.179-.057.21-.296.06-.41-.223-.17-.415-.37-.097-.384.273-.01.582.214.784.399a.44.44 0 0 1-.092.733s-2.857 1.146-10.96-.618c0 0-1.51-.622-.041-.597M225.75 369.687l.127-.93s-1.268-.233-1.188-.814c0 0-1.087-.268-.236.856l1.297.888z"/>
            <path fill="#E5E5E5" d="M226.343 362.555c.186-.17.475-.106.612.106.148.23.53.61 1.51 1.005 0 0 9.995 4.274 11.361 4.224.103-.003.487-.555.564-.634.451-.458.953-.881 1.51-1.205 1.394-.807 3.166-.452 4.346.576 1.514 1.319.912 4.078-.657 5.088-1.603 1.03-4.109.257-5.71-.324 0 0-12.613-4.574-14.545-6.438 0 0 .4-1.841 1.009-2.398"/>
            <path fill="#9B806D" d="M242.182 357.19l-13.55-4.854a1.587 1.587 0 0 1-.955-2.02l1.793-5.026a1.581 1.581 0 0 1 2.017-.956l13.55 4.854a1.586 1.586 0 0 1 .955 2.02l-1.793 5.025a1.582 1.582 0 0 1-2.017.956M299.686 356.881h-13.685a1.567 1.567 0 0 1-1.56-1.564v-5.665c0-.86.702-1.564 1.56-1.564h13.685c.86 0 1.562.704 1.562 1.564v5.665c0 .86-.703 1.564-1.562 1.564"/>
            <path fill="#F9DFCA" d="M385.56 373.552a.351.351 0 0 1-.35-.35v-.567c0-.192.158-.35.35-.35.192 0 .35.157.35.35v.567c0 .192-.158.35-.35.35M387.339 373.552a.35.35 0 0 1-.35-.35v-.567a.35.35 0 0 1 .35-.35c.192 0 .35.157.35.35v.567c0 .192-.158.35-.35.35M389.118 373.552a.35.35 0 0 1-.35-.35v-.567a.35.35 0 0 1 .35-.35c.192 0 .35.157.35.35v.567c0 .192-.158.35-.35.35M390.897 373.552a.35.35 0 0 1-.35-.35v-.567a.35.35 0 0 1 .35-.35c.192 0 .35.157.35.35v.567c0 .192-.158.35-.35.35M392.676 373.552a.351.351 0 0 1-.35-.35v-.567c0-.192.157-.35.35-.35a.35.35 0 0 1 .349.35v.567a.35.35 0 0 1-.35.35M413.006 367.406a.303.303 0 0 1-.34-.26l-.125-.943a.302.302 0 0 1 .598-.08l.126.944a.303.303 0 0 1-.26.34M414.528 367.203a.303.303 0 0 1-.34-.26l-.125-.943a.302.302 0 0 1 .598-.08l.126.943a.303.303 0 0 1-.259.34M416.05 367a.303.303 0 0 1-.339-.26l-.125-.944a.302.302 0 0 1 .598-.08l.125.944a.303.303 0 0 1-.259.34M417.572 366.796a.303.303 0 0 1-.339-.26l-.125-.943a.302.302 0 0 1 .598-.08l.126.943a.303.303 0 0 1-.26.34M419.095 366.593a.303.303 0 0 1-.34-.26l-.125-.943a.302.302 0 0 1 .598-.08l.126.943a.303.303 0 0 1-.26.34"/>
            <path fill="#E2B95F" d="M346.461 354.99h-33.436c-15.574 0-28.2-12.648-28.2-28.25v-27.768h89.836v27.768c0 15.602-12.626 28.25-28.2 28.25"/>
            <path fill="#E2B95F" d="M374.66 301.911c0 9.007-20.11 16.309-44.917 16.309-24.807 0-44.917-7.302-44.917-16.309 0-9.007 20.11-13.74 44.917-13.74 24.807 0 44.918 4.733 44.918 13.74"/>
            <path fill="#1E1E1E" d="M374.66 298.972c0 7.383-20.11 13.37-44.917 13.37-24.807 0-44.918-5.987-44.918-13.37 0-7.384 20.11-13.37 44.918-13.37 24.807 0 44.917 5.986 44.917 13.37"/>
            <path fill="#FFF" d="M319.876 171.284s-1.465-1.101-2.075-2.107c0 0-.322 1.777 1.17 2.751l.905-.644z"/>
            <path fill="#000" d="M397.56 223.3a5.866 5.866 0 0 1-6.158 5.56 5.868 5.868 0 0 1-5.55-6.168 5.866 5.866 0 0 1 6.157-5.56 5.869 5.869 0 0 1 5.55 6.169"/>
            <path fill="#B28E47" d="M258.751 225.557l-14.734-5.278 1.527-4.28 14.735 5.278z"/>
            <path fill="#493626" d="M254.77 281.333l.62 4.12 11.535.149-.315-5.866zM272.23 280.52l1.619 5.082h26.781l-.806-3.958a.812.812 0 0 0-.795-.65l-26.8-.475z"/>
            <path fill="#B28E47" d="M309.606 196.933s-6.996-1.795-22.24 1.945c-8.8 2.16-20.887 12.47-26.292 20.035-6.372 8.918-9.777 19.52-10.603 30.406-.702 9.254-.472 18.571.283 27.79l.373 4.57h48.768l-12.285-33.696c-1.936-5.31-1.426-11.255 1.96-17.096l20.036-33.954zM308.858 173.731s-6.874 4.218-21.13-10.54l-2.292 1.214s14.184 17.952 26.468 11.1l-3.046-1.774z"/>
            <path fill="#A37D3A" d="M257.138 249.984l27.935.982 3.694 11.822c1.833 5.865-2.55 11.836-8.533 11.626l-14.486-.51c-4.58-.161-8.234-3.979-8.323-8.697l-.287-15.223zM299.048 214.825l-14.607-1.038-3.313 4.58c-4.14 5.723-1.611 13.826 5.046 16.168l1.624.088 11.25-19.798z"/>
            <path fill="#B28E47" d="M244.675 215.998c-1.527.56-3.637-1.377-4.71-4.323-1.075-2.947-.708-5.79.82-6.348 1.527-.558 3.636 1.377 4.71 4.324 1.075 2.947.707 5.789-.82 6.347m-4.795-13.152c-2.85 1.042-3.884 5.387-2.31 9.705 1.574 4.317 5.16 6.971 8.01 5.929 2.849-1.043 3.883-5.388 2.31-9.705-1.575-4.317-5.16-6.972-8.01-5.93"/>
            <path fill="#B28E47" d="M243.067 219.462c.558 1.53-1.374 3.643-4.316 4.72-2.941 1.075-5.778.707-6.336-.823-.558-1.53 1.375-3.643 4.316-4.719 2.942-1.076 5.778-.708 6.336.822m-13.129 4.803c1.041 2.855 5.378 3.89 9.688 2.314 4.309-1.577 6.96-5.169 5.918-8.023-1.04-2.855-5.378-3.89-9.687-2.314-4.31 1.577-6.96 5.169-5.919 8.023"/>
            <path fill="#AD8460" d="M296.988 302.082a4.137 4.137 0 0 1-4.133 4.141 4.137 4.137 0 0 1-4.134-4.14 4.137 4.137 0 0 1 4.134-4.142 4.137 4.137 0 0 1 4.133 4.141M309.208 296.499a4.137 4.137 0 0 1-4.133 4.14 4.137 4.137 0 0 1-4.134-4.14 4.137 4.137 0 0 1 4.134-4.142 4.137 4.137 0 0 1 4.133 4.142"/>
            <path fill="#AD8460" d="M316.09 296.499a4.137 4.137 0 0 1-4.134 4.14 4.137 4.137 0 0 1-4.133-4.14 4.137 4.137 0 0 1 4.133-4.142 4.137 4.137 0 0 1 4.134 4.142"/>
            <path fill="#AD8460" d="M322.972 295.353a4.137 4.137 0 0 1-4.134 4.14 4.137 4.137 0 0 1-4.134-4.14 4.137 4.137 0 0 1 4.134-4.141 4.137 4.137 0 0 1 4.134 4.141"/>
            <path fill="#AD8460" d="M329.853 294.207a4.137 4.137 0 0 1-4.133 4.141 4.137 4.137 0 0 1-4.134-4.14 4.137 4.137 0 0 1 4.134-4.142 4.137 4.137 0 0 1 4.133 4.141"/>
            <path fill="#AD8460" d="M336.735 294.207a4.137 4.137 0 0 1-4.134 4.141 4.137 4.137 0 0 1-4.133-4.14 4.137 4.137 0 0 1 4.133-4.142 4.137 4.137 0 0 1 4.134 4.141"/>
            <path fill="#AD8460" d="M343.616 295.353a4.137 4.137 0 0 1-4.133 4.14 4.137 4.137 0 0 1-4.134-4.14 4.137 4.137 0 0 1 4.134-4.141 4.137 4.137 0 0 1 4.133 4.141"/>
            <path fill="#AD8460" d="M350.498 296.499a4.137 4.137 0 0 1-4.134 4.14 4.137 4.137 0 0 1-4.133-4.14 4.137 4.137 0 0 1 4.133-4.142 4.137 4.137 0 0 1 4.134 4.142M302.59 297.941a4.137 4.137 0 0 1-4.133 4.141 4.137 4.137 0 0 1-4.134-4.14 4.137 4.137 0 0 1 4.134-4.142 4.137 4.137 0 0 1 4.133 4.141M363.356 301.458a4.137 4.137 0 0 0 4.133 4.14 4.137 4.137 0 0 0 4.134-4.14 4.137 4.137 0 0 0-4.134-4.141 4.137 4.137 0 0 0-4.133 4.14"/>
            <path fill="#AD8460" d="M349.298 296.499a4.137 4.137 0 0 0 4.134 4.14 4.137 4.137 0 0 0 4.133-4.14 4.137 4.137 0 0 0-4.133-4.142 4.137 4.137 0 0 0-4.134 4.142"/>
            <path fill="#AD8460" d="M356.936 297.941a4.137 4.137 0 0 0 4.134 4.141 4.137 4.137 0 0 0 4.133-4.14 4.137 4.137 0 0 0-4.133-4.142 4.137 4.137 0 0 0-4.134 4.141"/>
            <path fill="#AD8460" d="M371.5 302.451c0 4.401-19.436 10.048-41.79 10.048s-40.475-4.981-40.475-9.383c0-4.402 18.121-7.97 40.476-7.97 22.353 0 41.79 2.904 41.79 7.305"/>
            <path fill="#BAE55C" d="M307.154 297.73a1.95 1.95 0 0 1-1.947 1.95 1.95 1.95 0 0 1-1.948-1.95 1.95 1.95 0 0 1 1.948-1.951 1.95 1.95 0 0 1 1.947 1.95M347.807 306.591a1.444 1.444 0 0 1-2.885 0c0-.798.646-1.445 1.442-1.445.797 0 1.443.647 1.443 1.445M363.017 300.64a1.95 1.95 0 0 1-1.947 1.95 1.95 1.95 0 0 1-1.948-1.95 1.95 1.95 0 0 1 1.948-1.952 1.95 1.95 0 0 1 1.947 1.951"/>
            <path fill="#966D4E" d="M321.595 307.73a1.95 1.95 0 0 1-1.947 1.952 1.95 1.95 0 0 1-1.948-1.951 1.95 1.95 0 0 1 1.948-1.951 1.95 1.95 0 0 1 1.947 1.95M352.224 300.317a1.95 1.95 0 0 1-1.948 1.951 1.95 1.95 0 0 1-1.947-1.951 1.95 1.95 0 0 1 1.947-1.95 1.95 1.95 0 0 1 1.948 1.95M300.404 303.195a1.95 1.95 0 0 1-1.947 1.952 1.95 1.95 0 0 1-1.948-1.952 1.95 1.95 0 0 1 1.948-1.95 1.95 1.95 0 0 1 1.947 1.95M338.008 308.2a1.274 1.274 0 1 1-1.273-1.275c.703 0 1.273.571 1.273 1.276M319.337 299.206c-3.002.703-5.791-.247-6.229-2.124-.438-1.877 1.64-3.968 4.642-4.671 3.002-.704 5.791.247 6.229 2.124.438 1.876-1.64 3.968-4.642 4.671"/>
            <path fill="#F9DFCA" d="M356.982 291.451l-5.057 2.998-2.488 2.456a1.61 1.61 0 0 1-1.765.333 1.614 1.614 0 0 1-.896-1.982l.626-1.926a8.377 8.377 0 0 1 4.455-5.017l5.125 3.138z"/>
            <path fill="#9B806D" d="M422.611 279.454c-6.167-14.597-11.907-33.789-26.087-42.668l-1.806-1.13c-1.556-.975.953-1.967-2.85-3.015-3.204-.883-8.508 4.4-10.772 7.255-.357.207-1.464 2.32-1.832 2.657 0 0-11.043 22.067-14.216 30.009a11.725 11.725 0 0 1-2.91 4.24l-13.193 13.351 4.796 3.567 16.458-9.928a9.212 9.212 0 0 0 2.683-2.864c2.093-3.509 7.002-11.9 11.641-21.057.973 3.743 2.504 11.969 3.51 15.572 2.068 7.418 4.2 14.818 6.462 22.18.01.032 1.286 4.174 3.324 4.208 5.403 1.004 13.118.129 18.665-.034.786-.024 1.588-.053 2.4-.086 5.842-.241 9.753-6.123 7.742-11.622-1.241-3.394-2.455-6.942-4.005-10.61l-.01-.025z"/>
            <path fill="#F3E95A" d="M318.8 117.312c4.662-8.394 11.528-6.792 11.528-6.792 8.228 1.95 6.962 6.846 6.962 6.846l-.017.058c-.49 1.626-1.361 3.095-2.447 4.398-1.459 1.75-2.034 4.896-2.434 6.688-1.319 5.903-1.498 11.752-7.421 14.976-4.568 2.487-10.257 2.478-15.184 1.34-3.158-.73-6.23-1.821-9.19-3.132-.235-.104-3.89-1.668-3.826-1.876 7.709-25.303 17.562-14.462 22.029-22.506"/>
            <path fill="#FCDA53" d="M300.732 140.453c.014-1.888 3.369-.312 3.369-.312s1.461.562-2.283 4.26l-6.384 6.306s-1.965 1.946-3.162.52c0 0-.383-1.438 1.373-2.562 0 0 7.074-6.324 7.087-8.212"/>
            <path fill="#FCDA53" d="M312.517 119.546s6.2-1.785 7.78-4.515c0 0 1.113 5.636 5.188 7.72 0 0 4.92 2.873 2.989 7.985 0 0-1.31 6.32-9.545 8.557l-11.485 5.073-6.257 12.538-3.374.328-2.747 7.653-1.76-.164-1.858 3.47s-.685 1.516-2.442.694c0 0-1.7-.69-.772-2.422 0 0 10.271-22.853 8.964-25.581 0 0-2.171-5.206 2.518-10.513 0 0 5.403-8.02 12.801-10.823"/>
            <path fill="#F9C853" d="M299.895 145.573c1.429-.223 2.747-.971 3.571-2.162 1.603-2.314-.072-4.087-.072-4.087-2.066-2.882.438-6.823.438-6.823.982-1.546 2.328-3.39 4.32-3.498 1.545-.083 3.023.737 4.556.853 1.205.091 2.404-.133 3.579.265 1.957.665 3.685 2.141 4.507 4.058.223.519 1.312 3.706.676 4.21-5.249 4.16-10.254 5.874-12.779 6.527a3.826 3.826 0 0 0-2.509 2.085l-3.922 8.385c-.379.808-.912 1.918-1.754 2.207l-1.429.338c-.599.206-.498.102-.682.709l-1.955 6.458a2.285 2.285 0 0 1-1.954 1.612c-.977.099-1.795.786-2.062 1.733l-.125.44c-.18 2.116-1.645 1.76-1.645 1.76-2.52-.006-1.685-2.557-1.685-2.557 1.334-1.759 7.63-22.896 7.63-22.896.794.604 2.176.558 3.296.383"/>
            <path fill="#FCDA53" d="M334.858 121.784s-2.117 4.214-2.888 8.605a20.208 20.208 0 0 0-.577-2.989c-.445-1.653-3.224-3.997-1.269-5.622.001 0 .779-1.323 4.734.006"/>
            <path fill="#F6B455" d="M310.433 133.697a6.51 6.51 0 0 1 1.018-.197s5.56.005 6.402-2.613c0 0 1.903.459 3.202 2.757 0 0 .906 1.558.491 3.07 0 0-3.645 2.552-6.827 3.878-1.671.696-3.594.609-5.147-.321a10.21 10.21 0 0 1-.078-.048c-2.644-1.644-2.056-5.682.94-6.526"/>
            <path fill="#CCAE6D" d="M341.39 119.66c-1.328 1.247-6.803-1.592-6.803-1.592l2.734-1.332c4.956 1.856 4.07 2.923 4.07 2.923"/>
            <path fill="#000" d="M330.808 113.986a.86.86 0 0 1-.77 1.535.86.86 0 0 1 .77-1.535"/>
            <path fill="#F9EED2" d="M397.513 302.714l-8.026 12.476a47.955 47.955 0 0 0-7.58 27.938l1.067 25.616h12.581l2.556-30.63a7.174 7.174 0 0 1 2.403-4.784l23.796-20.989c3.25-2.995 4.357-5.322 4.575-9.417.193-3.636-.397-7.272-1.568-10.719l-1.107-3.261-28.697 13.77z"/>
            <path fill="#FFFBF3" d="M395.337 369.839l-11.664-.447a1.254 1.254 0 0 1-1.2-1.299l.156-4.09c.026-.689.61-1.23 1.296-1.204l11.664.447c.686.026 1.227.61 1.2 1.299l-.156 4.09a1.254 1.254 0 0 1-1.296 1.204M419.702 358.23l-10.376 6.93a1.257 1.257 0 0 1-1.74-.348l-1.947-2.925a1.262 1.262 0 0 1 .348-1.743l10.375-6.931a1.257 1.257 0 0 1 1.74.348l1.947 2.925c.383.575.227 1.36-.347 1.744"/>
            <path fill="#E2B95F" d="M384.397 259.91s9.952-2.65 13.18 2.913l12.362 25.878.03.087a6.74 6.74 0 0 1-.959 6.267l-8.39 14.046c-.333.56-.924.911-1.574.943-2.968.147-11.373.155-14.324-4.179a2.138 2.138 0 0 1-.032-2.337l5.555-8.812c1.609-2.069 1.068-5.178.472-7.732l-6.32-27.075zM379.518 242.23s9.558 2.806 14.649-7.097l.986.87s-3.031 10.964-16.55 7.875c0 0-.085-.912.915-1.647"/>
            <path fill="#E2B95F" d="M400.813 272.623l16.01-7.533 1.702 3.63-16.01 7.533z"/>
            <g transform="translate(416.922 264.569)">
                <mask id="d" fill="#fff">
                    <use xlink:href="#c"/>
                </mask>
                <path fill="#E2B95F" d="M2.675 3.679c.633-1.354 3.257-1.461 5.86-.24 2.602 1.222 4.2 3.31 3.566 4.664-.633 1.354-3.256 1.46-5.86.24C3.64 7.12 2.042 5.032 2.675 3.678M14.292 9.13c1.182-2.525-.952-6.024-4.765-7.814C5.714-.473 1.665.124.484 2.65c-1.182 2.526.952 6.025 4.765 7.814 3.813 1.79 7.862 1.193 9.043-1.333" mask="url(#d)"/>
            </g>
            <path fill="#E2B95F" d="M418.406 264.952c-1.351-.635-1.458-3.263-.239-5.87 1.22-2.608 3.304-4.207 4.655-3.573 1.352.634 1.459 3.262.24 5.87-1.22 2.607-3.304 4.207-4.656 3.573m5.443-11.639c-2.521-1.183-6.014.954-7.8 4.775-1.786 3.82-1.19 7.875 1.33 9.06 2.522 1.183 6.014-.955 7.8-4.775 1.787-3.82 1.191-7.876-1.33-9.06"/>
        </g>
        <path fill="#D3A853" d="M313.025 354.99h33.436c15.574 0 28.2-12.648 28.2-28.25v-16.157c-6.547 14.24-25.84 19.652-37.502 21.651-7.212 1.236-14.596 1.307-21.775-.108-16.492-3.252-25.628-12.311-30.558-20.01v14.624c0 15.602 12.625 28.25 28.199 28.25"/>
        <g>
            <path fill="#6BB58D" d="M366.352 208.395c-4.402 1.76-8.485 1.894-9.12.3-.634-1.593 2.42-4.31 6.822-6.07 4.402-1.76 8.485-1.893 9.12-.3.634 1.593-2.42 4.312-6.822 6.07M344.73 195.976c-1.954-8.367-.95-15.756 2.24-16.504 3.19-.747 7.36 5.43 9.314 13.797 1.953 8.367.95 15.755-2.24 16.503-3.19.748-7.36-5.43-9.314-13.796M337.038 272.616c6.066-1.422 11.423-.692 11.965 1.63.542 2.32-3.936 5.355-10.002 6.776-6.067 1.422-11.423.692-11.965-1.63-.542-2.321 3.936-5.355 10.002-6.776"/>
            <path fill="#6BB58D" d="M317.734 300.348l-1.91-.822 55.14-128.564 1.91.821z"/>
            <path fill="#F9CA46" d="M375.9 163.138c-1.185 2.766-4.268 4.094-6.886 2.968-2.617-1.127-3.777-4.282-2.59-7.047 1.186-2.765 4.269-4.094 6.886-2.968 2.617 1.127 3.777 4.282 2.59 7.047"/>
            <path fill="#F9CA46" d="M385.2 167.14c-1.187 2.766-4.27 4.095-6.887 2.968-2.617-1.126-3.777-4.281-2.591-7.047 1.186-2.765 4.269-4.094 6.886-2.967 2.617 1.126 3.777 4.28 2.591 7.047"/>
            <path fill="#F9C853" d="M375.515 163.495l-.94-.405 7.674-17.892.94.405z"/>
            <path fill="#F3E95A" d="M384.455 146.148a1.888 1.888 0 0 1-2.482.992 1.894 1.894 0 0 1-.99-2.486 1.888 1.888 0 0 1 2.482-.993 1.894 1.894 0 0 1 .99 2.487"/>
            <path fill="#F9C853" d="M376.53 173.726l-.94-.405 7.673-17.892.94.405z"/>
            <path fill="#F3E95A" d="M385.953 155.25a1.888 1.888 0 0 1-2.482.992 1.894 1.894 0 0 1-.99-2.486 1.889 1.889 0 0 1 2.482-.992 1.894 1.894 0 0 1 .99 2.486"/>
            <path fill="#F9C853" d="M368.17 170.38l-.94-.405 7.673-17.891.94.404z"/>
            <path fill="#F3E95A" d="M377.697 151.665a1.888 1.888 0 0 1-2.482.991 1.894 1.894 0 0 1-.99-2.486 1.889 1.889 0 0 1 2.482-.992 1.894 1.894 0 0 1 .99 2.487M368.536 180.56s-17.263-5.64-10.937-20.39c0 0 3.458-6.63 9.819-3.892 0 0 5.36 2.583 3.368 7.228 0 0 1.694-5.049 6.367-3.037 0 0 4.334 1.727 2.142 6.837 0 0 1.665-4.903 7.88-2.513.342.132.673.3.982.5 1.068.69 2.797 2.182 3.39 4.685.38 1.597.134 3.23-.55 4.67-1.831 3.853-7.72 12.298-22.46 5.913"/>
            <path fill="#E5CB33" d="M363.155 168.563c-.393-6.776 3.26-9.78 6.021-11.078-.901-.793-1.758-1.207-1.758-1.207-6.36-2.738-9.819 3.892-9.819 3.892-6.326 14.75 10.937 20.39 10.937 20.39 5.474 2.372 9.725 2.697 13.003 1.972-19.572-3.414-18.384-13.969-18.384-13.969"/>
            <path fill="#6BB58D" d="M361.78 178.734c-1.56 3.635-.174 7.722 3.094 9.129 3.269 1.407 7.182-.4 8.741-4.035.22-.515.376-1.038.482-1.562l-11.518-4.958a7.922 7.922 0 0 0-.8 1.426"/>
        </g>
        <g>
            <path fill="#966D4E" d="M324.362 300.019c0 2.341-3.304 4.24-7.378 4.24-4.075 0-7.378-1.899-7.378-4.24 0-2.342 3.303-4.24 7.378-4.24 4.074 0 7.378 1.898 7.378 4.24"/>
            <path fill="#966D4E" d="M333.905 297.942c0 2.91-3.612 5.267-8.067 5.267-4.454 0-8.066-2.358-8.066-5.267 0-2.909 3.612-5.267 8.066-5.267 4.455 0 8.067 2.358 8.067 5.267"/>
            <path fill="#966D4E" d="M340.52 299.834c0 2.226-3.137 4.031-7.005 4.031s-7.004-1.805-7.004-4.03c0-2.227 3.136-4.032 7.004-4.032 3.868 0 7.004 1.805 7.004 4.031M316.258 301.593c0 1.266-2.24 2.292-5.004 2.292-2.764 0-5.004-1.026-5.004-2.292 0-1.266 2.24-2.293 5.004-2.293 2.763 0 5.004 1.027 5.004 2.293"/>
            <path fill="#966D4E" d="M343.873 304.001c-1.343.685-3.577.224-4.989-1.03-1.412-1.253-1.468-2.823-.125-3.508s3.577-.224 4.989 1.03c1.412 1.253 1.468 2.823.125 3.508"/>
            <path fill="#966D4E" d="M342.26 304.544h-33.542a2.47 2.47 0 0 1-2.468-2.472v-.197h38.478v.197a2.47 2.47 0 0 1-2.468 2.472"/>
            <path fill="#896045" d="M317.977 299.922a1.46 1.46 0 1 1-2.918 0 1.46 1.46 0 0 1 1.459-1.462 1.46 1.46 0 0 1 1.459 1.462M332.198 301.593a1.46 1.46 0 0 1-2.917 0 1.46 1.46 0 1 1 2.917 0M320.377 297.346a.73.73 0 1 1-1.46.002.73.73 0 0 1 1.46-.002M329.392 298.46a.73.73 0 1 1-1.46.002.73.73 0 0 1 1.46-.002M334.947 302.397a.73.73 0 1 1-1.46.001.73.73 0 0 1 1.46-.001"/>
        </g>
        <g>
            <path fill="#D1C19F" d="M288.98 232.543l15.75-27.349-.277 8.593s-13.138 20.486-8.863 32.431l-6.61-13.675z"/>
            <path fill="#725947" d="M378.251 244.587l-7.644 15.69s-8.16 3.134-11.52 3.342c0 0 11.016-4.462 14.528-16.919l4.636-2.113z"/>
        </g>
        <g>
            <path fill="#FFF" d="M138.005 350.935c-7.457-.032-13.584-5.882-14.124-13.399-.805-11.191.8-26.565 13.578-34.408 12.264-7.528 30.538-4.629 37.778 5.988 4.126 6.051 6.638 15.42 4.252 29.918-1.144 6.955-7.114 12.05-14.09 12.02l-27.394-.119z"/>
            <path fill="#F9F9F9" d="M112.532 349.26c-8.159-.037-14.703-6.998-14.128-15.224.441-6.314 2.423-13.08 8.116-17.025 7.327-5.076 18.241-3.126 22.563 4.028 1.954 3.235 3.3 7.877 3.06 14.535-.276 7.698-6.644 13.745-14.266 13.71l-5.345-.024z"/>
        </g>
        <g>
            <g transform="translate(329.156 260.03)">
                <mask id="f" fill="#fff">
                    <use xlink:href="#e"/>
                </mask>
                <path fill="#BC8757" d="M1.439.083l.13 1.477L.27 7.925s-.389 3.058 1.298 2.97c0 0 1.421.655 2.756-.731l3.476-3.752c.5-.541.78-1.259.78-2.005V.083H1.44z" mask="url(#f)"/>
            </g>
            <g transform="translate(328.523 228.183)">
                <mask id="h" fill="#fff">
                    <use xlink:href="#g"/>
                </mask>
                <path fill="#F9EED2" d="M.001 33.422l11.383.932S14.942 4.582 15.108.261H6.375S-.09 29.427 0 33.422" mask="url(#h)"/>
            </g>
        </g>
    </g>
</svg>
